<?xml version="1.0" standalone="no"?>
<!DOCTYPE svg PUBLIC "-//W3C//DTD SVG 20010904//EN"
 "http://www.w3.org/TR/2001/REC-SVG-20010904/DTD/svg10.dtd">
<svg version="1.0" xmlns="http://www.w3.org/2000/svg"
 width="600.000000pt" height="600.000000pt" viewBox="0 0 600.000000 600.000000"
 preserveAspectRatio="xMidYMid meet">
<metadata>
Created by potrace 1.14, written by Peter Selinger 2001-2017
</metadata>
<g transform="translate(0.000000,600.000000) scale(0.100000,-0.100000)"
fill="#000000" stroke="none">
<path d="M5149 5932 c-22 -3 -29 -11 -39 -50 -32 -120 -115 -250 -189 -296
-101 -64 -183 -55 -373 40 -292 144 -587 240 -853 278 -22 3 -69 10 -105 15
-66 10 -544 8 -590 -2 -14 -3 -59 -11 -100 -16 -116 -17 -139 -21 -230 -43
-324 -77 -634 -211 -915 -396 -63 -42 -172 -121 -201 -147 -6 -5 -36 -30 -65
-55 -184 -154 -424 -438 -549 -650 -63 -106 -74 -126 -136 -250 -252 -506
-360 -1080 -320 -1695 4 -60 9 -121 11 -135 2 -14 9 -59 14 -100 17 -117 21
-138 47 -260 86 -393 273 -786 538 -1130 94 -122 307 -340 419 -428 181 -143
404 -271 617 -356 111 -43 337 -111 410 -122 19 -3 43 -7 52 -10 27 -8 60 -14
113 -19 28 -3 57 -8 65 -10 8 -2 51 -7 95 -11 44 -3 94 -8 110 -10 44 -5 402
-4 455 1 25 2 72 7 105 10 162 16 430 71 510 104 11 5 56 21 100 36 188 65
496 238 621 350 6 6 35 30 65 55 175 148 386 394 540 630 73 112 149 238 149
247 0 14 -121 86 -129 77 -4 -5 -52 -67 -106 -139 -54 -71 -101 -132 -104
-135 -3 -3 -28 -32 -56 -65 -200 -241 -430 -451 -610 -558 -223 -132 -496
-219 -765 -244 -151 -14 -476 -8 -565 10 -11 3 -42 8 -70 12 -239 34 -566 161
-775 300 -395 264 -655 646 -804 1181 -26 96 -63 264 -71 329 -7 60 -16 127
-21 155 -13 81 -19 229 -19 495 0 312 6 437 30 630 3 22 7 61 10 86 3 26 7 55
9 65 2 11 7 39 11 64 8 51 8 48 29 149 143 663 448 1162 879 1434 83 53 289
151 382 182 86 29 203 59 275 70 25 4 54 9 65 11 43 8 204 18 285 17 207 -1
353 -20 533 -69 405 -111 740 -361 978 -729 123 -190 268 -510 336 -742 11
-40 24 -63 33 -64 8 -1 38 -2 66 -3 l52 -2 -3 36 c-2 19 -6 80 -10 135 -3 55
-8 127 -10 160 -3 33 -7 96 -10 140 -3 44 -7 107 -9 140 -3 33 -7 105 -11 160
-6 105 -10 168 -20 300 -3 44 -7 109 -10 145 -2 36 -7 106 -11 155 -3 50 -8
115 -9 145 -4 60 -16 234 -20 290 -2 19 -4 49 -4 67 -1 30 -3 31 -48 35 -27 1
-60 2 -74 0z"/>
</g>
</svg>
